<?xml version="1.0" encoding="UTF-8" standalone="no"?>
<svg
   xmlns:dc="http://purl.org/dc/elements/1.1/"
   xmlns:cc="http://creativecommons.org/ns#"
   xmlns:rdf="http://www.w3.org/1999/02/22-rdf-syntax-ns#"
   xmlns:svg="http://www.w3.org/2000/svg"
   xmlns="http://www.w3.org/2000/svg"
   viewBox="0 0 3720.7732 3784.0532"
   height="3784.0532"
   width="3720.7732"
   xml:space="preserve"
   id="svg2"
   version="1.1"><metadata
     id="metadata8"><rdf:RDF><cc:Work
         rdf:about=""><dc:format>image/svg+xml</dc:format><dc:type
           rdf:resource="http://purl.org/dc/dcmitype/StillImage" /></cc:Work></rdf:RDF></metadata><defs
     id="defs6" /><g
     transform="matrix(1.3333333,0,0,-1.3333333,0,3784.0533)"
     id="g10"><g
       transform="scale(0.1)"
       id="g12"><g
         transform="scale(1.7411)"
         id="g14"><path
           id="path16"
           style="fill:#e12f40;fill-opacity:1;fill-rule:evenodd;stroke:none"
           d="M 1116.89,8501.16 C 1111.57,6685.24 1573.05,5236.04 2441.21,4011.36 3886.76,1972.14 6277.45,889.264 8760.82,1153.75 c 1178.73,125.5 2256.18,532.48 3209.78,1233.59 1790.4,1316.29 2767.6,3099.01 2927.8,5310.13 116.9,1615.59 -276.1,3118.53 -1195.2,4456.83 -1283.2,1868.4 -3062,2916.2 -5334.6,3051.9 C 6627.46,15310.1 5064.2,14788.3 3720.34,13679.4 1996.57,12257.1 1167.67,10394.8 1116.89,8501.16 Z M 0,8160.05 c 92.8649,2849.55 1241.1,5146.95 3601.27,6789.25 1207.94,840.6 2565.22,1287.9 4037.67,1344 2510.56,95.7 4617.36,-802.8 6301.36,-2656.9 1232.4,-1356.9 1910,-2971.3 2057.4,-4799.02 C 16160.7,6813.61 15659.4,4961.62 14465,3319.62 13203.5,1585.2 11511.7,485.441 9390.08,127.048 6783.05,-313.363 4491.1,394.75 2560.54,2196.37 1161.1,3502.38 358.86,5135.02 86.0445,7027.61 32.1343,7401.57 12.4853,7778.97 0,8160.05" /></g><g
         transform="scale(1.43399)"
         id="g18"><path
           id="path20"
           style="fill:#e12f40;fill-opacity:1;fill-rule:evenodd;stroke:none"
           d="m 9734.09,3499.12 c -1588.23,0 -3176.45,0 -4764.68,0 -133.98,0 -134.1,0.27 -68.18,114.78 1187.49,2062.21 2374.75,4124.57 3563.88,6185.88 34.87,60.39 42.47,103.07 5.09,168.06 -1193.59,2075.56 -2384.63,4152.76 -3576,6229.66 -58.22,101.5 -58.07,102.3 56.16,102.3 3191.11,0.2 6382.24,0.2 9573.34,0.1 115.3,0 115.5,-0.9 56.9,-101.9 -1204.2,-2078 -2408.1,-4156.1 -3614.2,-6233.02 -34.6,-59.55 -31.7,-100.56 1.9,-158.23 1203.8,-2065.56 2406,-4132.03 3607.5,-6198.85 17.2,-29.71 60.1,-60.25 37,-95.12 -20.7,-31.45 -67.9,-12.97 -103,-13.04 -1591.9,-0.77 -3183.8,-0.62 -4775.71,-0.62" /></g></g></g></svg>